<?xml version="1.0" encoding="utf-8"?>
<!-- Generator: Adobe Illustrator 22.1.0, SVG Export Plug-In . SVG Version: 6.00 Build 0)  -->
<svg version="1.1" xmlns="http://www.w3.org/2000/svg" xmlns:xlink="http://www.w3.org/1999/xlink" x="0px" y="0px"
	 viewBox="0 0 74 74" style="enable-background:new 0 0 74 74;" xml:space="preserve">
<style type="text/css">
	.st0{fill:#D22856;}
	.st1{fill:#FFFFFF;stroke:#FFFFFF;stroke-width:0.25;stroke-miterlimit:10;}
</style>
<g id="Слой_4">
	<polygon class="st0" points="0,31.8 31.6,0 74,0 0,74 	"/>
</g>
<g id="Слой_3">
	<polygon class="st1" points="18.1,42.1 19.4,40.6 17.6,34.9 23.5,36.5 24.8,35.3 17.3,33.3 15.4,26.2 14.1,27.3 15.6,32.8 
		10.1,31.3 8.9,32.5 16.1,34.7 	"/>
	<polygon class="st1" points="16.5,25 25.7,34.3 27,33.1 23.4,21.6 31,29.2 31.9,28.2 22.7,18.9 21.4,20 25,31.4 17.5,24 	"/>
	<polygon class="st1" points="23.7,17.8 29.8,11.6 30.8,12.7 28.3,15.4 36.4,23.5 35.5,24.5 27.3,16.3 24.8,18.9 	"/>
</g>
</svg>
