<svg version="1.1" id="Layer_1" xmlns="http://www.w3.org/2000/svg" x="0" y="0" viewBox="0 0 42.1 47" xml:space="preserve"><style>.st0{fill:#a4c639}</style><path class="st0" d="M34 14H8v19c0 2 1 4 3 4v7a3 3 0 006 0v-7h8v7a3 3 0 006 0v-7c2 0 3-2 3-4V14z"/><path id="c-4-9-2-9-2-9" class="st0" d="M3 16c2 0 3 1 3 3v12c0 2-2 3-3 3-2 0-3-1-3-3V19c0-2 1-3 3-3z"/><path id="c-4-1-7-3-8-4" class="st0" d="M39 16c2 0 3 1 3 3v12c0 2-1 3-3 3-1 0-3-1-3-3V19c0-2 2-3 3-3z"/><path class="st0" d="M8 12h26c0-3-1-5-3-7l2-4V0l-3 4c-2-2-6-3-9-3s-7 1-9 3L9 0v1l2 4c-2 2-3 4-3 7zm17-5l2-2 1 2-1 1-2-1zM14 7l2-2 1 2-1 1-2-1z"/></svg>